Coordinates
nRows=230
nColumns=2
inDegrees=yes
endheader
time	ankle_angle_r	
3.02722	 -0.496108	
3.06048	 -0.489658	
3.09375	 -0.487364	
3.12702	 -0.485220	
3.16028	 -0.478186	
3.19355	 -0.470340	
3.22681	 -0.468477	
3.26008	 -0.471898	
3.29335	 -0.474625	
3.32661	 -0.471625	
3.35988	 -0.466387	
3.39315	 -0.469779	
3.42641	 -0.483764	
3.45968	 -0.499268	
3.49294	 -0.509970	
3.52621	 -0.516872	
3.55948	 -0.524008	
3.59274	 -0.530751	
3.62601	 -0.531939	
3.65927	 -0.527230	
3.69254	 -0.518449	
3.72581	 -0.505153	
3.75907	 -0.491015	
3.79234	 -0.480527	
3.8256	 -0.472415	
3.85887	 -0.465239	
3.89214	 -0.460646	
3.9254	 -0.459426	
3.95867	 -0.458881	
3.99194	 -0.455701	
4.0252	 -0.452405	
4.05847	 -0.455689	
4.09173	 -0.465360	
4.125	 -0.471659	
4.15827	 -0.467252	
4.19153	 -0.455967	
4.2248	 -0.448447	
4.25806	 -0.451585	
4.29133	 -0.459659	
4.3246	 -0.461574	
4.35786	 -0.457748	
4.39113	 -0.456430	
4.4244	 -0.459366	
4.45766	 -0.463927	
4.49093	 -0.468093	
4.52419	 -0.468629	
4.55746	 -0.466209	
4.59073	 -0.468677	
4.62399	 -0.481128	
4.65726	 -0.499397	
4.69052	 -0.514052	
4.72379	 -0.518575	
4.75706	 -0.516416	
4.79032	 -0.514965	
4.82359	 -0.516368	
4.85685	 -0.519719	
4.89012	 -0.521405	
4.92339	 -0.517173	
4.95665	 -0.512287	
4.98992	 -0.516099	
5.02319	 -0.525980	
5.05645	 -0.531671	
5.08972	 -0.528740	
5.12298	 -0.519877	
5.15625	 -0.513256	
5.18952	 -0.515627	
5.22278	 -0.521521	
5.25605	 -0.520502	
5.28931	 -0.509357	
5.32258	 -0.491756	
5.35585	 -0.478379	
5.38911	 -0.477537	
5.42238	 -0.481575	
5.45565	 -0.479800	
5.48891	 -0.471569	
5.52218	 -0.459686	
5.55544	 -0.449493	
5.58871	 -0.446417	
5.62198	 -0.447674	
5.65524	 -0.447285	
5.68851	 -0.444340	
5.72177	 -0.443189	
5.75504	 -0.448835	
5.78831	 -0.457057	
5.82157	 -0.456609	
5.85484	 -0.446623	
5.8881	 -0.437248	
5.92137	 -0.435661	
5.95464	 -0.442767	
5.9879	 -0.453891	
6.02117	 -0.459501	
6.05444	 -0.454562	
6.0877	 -0.443508	
6.12097	 -0.433577	
6.15423	 -0.428583	
6.1875	 -0.426670	
6.22077	 -0.424743	
6.25403	 -0.423589	
6.2873	 -0.422720	
6.32056	 -0.418936	
6.35383	 -0.412695	
6.3871	 -0.407371	
6.42036	 -0.405244	
6.45363	 -0.405718	
6.4869	 -0.405523	
6.52016	 -0.404996	
6.55343	 -0.407757	
6.58669	 -0.411116	
6.61996	 -0.409821	
6.65323	 -0.405159	
6.68649	 -0.401581	
6.71976	 -0.405167	
6.75302	 -0.420564	
6.78629	 -0.440192	
6.81956	 -0.452600	
6.85282	 -0.457666	
6.88609	 -0.458491	
6.91935	 -0.453355	
6.95262	 -0.444808	
6.98589	 -0.443071	
7.01915	 -0.453562	
7.05242	 -0.469480	
7.08569	 -0.480419	
7.11895	 -0.482772	
7.15222	 -0.480294	
7.18548	 -0.476975	
7.21875	 -0.474428	
7.25202	 -0.474273	
7.28528	 -0.476091	
7.31855	 -0.477764	
7.35181	 -0.479194	
7.38508	 -0.480302	
7.41835	 -0.479143	
7.45161	 -0.473710	
7.48488	 -0.463262	
7.51815	 -0.451770	
7.55141	 -0.447379	
7.58468	 -0.450289	
7.61794	 -0.449321	
7.65121	 -0.438176	
7.68448	 -0.424111	
7.71774	 -0.417084	
7.75101	 -0.417397	
7.78427	 -0.416601	
7.81754	 -0.411158	
7.85081	 -0.407831	
7.88407	 -0.412288	
7.91734	 -0.423258	
7.9506	 -0.436263	
7.98387	 -0.445668	
8.01714	 -0.449281	
8.0504	 -0.448912	
8.08367	 -0.445325	
8.11694	 -0.441466	
8.1502	 -0.442101	
8.18347	 -0.448035	
8.21673	 -0.460417	
8.25	 -0.480133	
8.28327	 -0.502313	
8.31653	 -0.521403	
8.3498	 -0.532092	
8.38306	 -0.528487	
8.41633	 -0.516092	
8.4496	 -0.510848	
8.48286	 -0.516617	
8.51613	 -0.521303	
8.5494	 -0.517465	
8.58266	 -0.510381	
8.61593	 -0.506331	
8.64919	 -0.504636	
8.68246	 -0.503957	
8.71573	 -0.508115	
8.74899	 -0.517884	
8.78226	 -0.525525	
8.81552	 -0.526544	
8.84879	 -0.524755	
8.88206	 -0.523058	
8.91532	 -0.522448	
8.94859	 -0.523824	
8.98185	 -0.525073	
9.01512	 -0.524791	
9.04839	 -0.524518	
9.08165	 -0.525359	
9.11492	 -0.528829	
9.14819	 -0.533509	
9.18145	 -0.533127	
9.21472	 -0.527816	
9.24798	 -0.523653	
9.28125	 -0.520605	
9.31452	 -0.517793	
9.34778	 -0.519059	
9.38105	 -0.523078	
9.41431	 -0.524746	
9.44758	 -0.524635	
9.48085	 -0.524336	
9.51411	 -0.522648	
9.54738	 -0.519982	
9.58065	 -0.518963	
9.61391	 -0.521698	
9.64718	 -0.526555	
9.68044	 -0.530240	
9.71371	 -0.533363	
9.74698	 -0.537199	
9.78024	 -0.538722	
9.81351	 -0.532768	
9.84677	 -0.517757	
9.88004	 -0.502937	
9.91331	 -0.502639	
9.94657	 -0.516636	
9.97984	 -0.530325	
10.0131	 -0.534251	
10.0464	 -0.528398	
10.0796	 -0.516769	
10.1129	 -0.506268	
10.1462	 -0.500791	
10.1794	 -0.499362	
10.2127	 -0.502414	
10.246	 -0.509936	
10.2792	 -0.515321	
10.3125	 -0.508974	
10.3458	 -0.490131	
10.379	 -0.469792	
10.4123	 -0.456423	
10.4456	 -0.447640	
10.4788	 -0.440049	
10.5121	 -0.434866	
10.5454	 -0.431770	
10.5786	 -0.430370	
10.6119	 -0.436607	
10.6452	 -0.453174	
